<svg width="115" height="42" viewBox="0 0 115 42" fill="none" xmlns="http://www.w3.org/2000/svg">
<path d="M14.552 0.248V17H11.192V9.872H4.016V17H0.656V0.248H4.016V7.136H11.192V0.248H14.552ZM27.6351 17.168C26.0671 17.168 24.6271 16.8 23.3151 16.064C22.0031 15.328 20.9631 14.312 20.1951 13.016C19.4271 11.704 19.0431 10.224 19.0431 8.576C19.0431 6.944 19.4271 5.48 20.1951 4.184C20.9631 2.872 22.0031 1.848 23.3151 1.112C24.6271 0.375999 26.0671 0.0079999 27.6351 0.0079999C29.2191 0.0079999 30.6591 0.375999 31.9551 1.112C33.2671 1.848 34.2991 2.872 35.0511 4.184C35.8191 5.48 36.2031 6.944 36.2031 8.576C36.2031 10.224 35.8191 11.704 35.0511 13.016C34.2991 14.312 33.2671 15.328 31.9551 16.064C30.6431 16.8 29.2031 17.168 27.6351 17.168ZM27.6351 14.168C28.6431 14.168 29.5311 13.944 30.2991 13.496C31.0671 13.032 31.6671 12.376 32.0991 11.528C32.5311 10.68 32.7471 9.696 32.7471 8.576C32.7471 7.456 32.5311 6.48 32.0991 5.648C31.6671 4.8 31.0671 4.152 30.2991 3.704C29.5311 3.256 28.6431 3.032 27.6351 3.032C26.6271 3.032 25.7311 3.256 24.9471 3.704C24.1791 4.152 23.5791 4.8 23.1471 5.648C22.7151 6.48 22.4991 7.456 22.4991 8.576C22.4991 9.696 22.7151 10.68 23.1471 11.528C23.5791 12.376 24.1791 13.032 24.9471 13.496C25.7311 13.944 26.6271 14.168 27.6351 14.168ZM44.0629 14.336H49.5829V17H40.7029V0.248H44.0629V14.336ZM57.0785 0.248V17H53.7185V0.248H57.0785ZM68.2542 0.248C70.0142 0.248 71.5582 0.592 72.8862 1.28C74.2302 1.968 75.2622 2.952 75.9822 4.232C76.7182 5.496 77.0862 6.968 77.0862 8.648C77.0862 10.328 76.7182 11.8 75.9822 13.064C75.2622 14.312 74.2302 15.28 72.8862 15.968C71.5582 16.656 70.0142 17 68.2542 17H62.3982V0.248H68.2542ZM68.1342 14.144C69.8942 14.144 71.2542 13.664 72.2142 12.704C73.1742 11.744 73.6542 10.392 73.6542 8.648C73.6542 6.904 73.1742 5.544 72.2142 4.568C71.2542 3.576 69.8942 3.08 68.1342 3.08H65.7582V14.144H68.1342ZM91.8733 13.808H85.2013L84.0973 17H80.5693L86.5933 0.223999H90.5053L96.5293 17H92.9773L91.8733 13.808ZM90.9613 11.12L88.5373 4.112L86.1133 11.12H90.9613ZM114.101 0.248L108.437 11.168V17H105.077V11.168L99.389 0.248H103.181L106.781 7.904L110.357 0.248H114.101ZM14.552 24.248V41H11.192V33.872H4.016V41H0.656V24.248H4.016V31.136H11.192V24.248H14.552ZM23.1711 24.248V34.616C23.1711 35.752 23.4671 36.624 24.0591 37.232C24.6511 37.824 25.4831 38.12 26.5551 38.12C27.6431 38.12 28.4831 37.824 29.0751 37.232C29.6671 36.624 29.9631 35.752 29.9631 34.616V24.248H33.3471V34.592C33.3471 36.016 33.0351 37.224 32.4111 38.216C31.8031 39.192 30.9791 39.928 29.9391 40.424C28.9151 40.92 27.7711 41.168 26.5071 41.168C25.2591 41.168 24.1231 40.92 23.0991 40.424C22.0911 39.928 21.2911 39.192 20.6991 38.216C20.1071 37.224 19.8111 36.016 19.8111 34.592V24.248H23.1711ZM48.0975 32.408C49.0415 32.584 49.8175 33.056 50.4255 33.824C51.0335 34.592 51.3375 35.472 51.3375 36.464C51.3375 37.36 51.1135 38.152 50.6655 38.84C50.2335 39.512 49.6015 40.04 48.7695 40.424C47.9375 40.808 46.9535 41 45.8175 41H38.5935V24.248H45.5055C46.6415 24.248 47.6175 24.432 48.4335 24.8C49.2655 25.168 49.8895 25.68 50.3055 26.336C50.7375 26.992 50.9535 27.736 50.9535 28.568C50.9535 29.544 50.6895 30.36 50.1615 31.016C49.6495 31.672 48.9615 32.136 48.0975 32.408ZM41.9535 31.16H45.0255C45.8255 31.16 46.4415 30.984 46.8735 30.632C47.3055 30.264 47.5215 29.744 47.5215 29.072C47.5215 28.4 47.3055 27.88 46.8735 27.512C46.4415 27.144 45.8255 26.96 45.0255 26.96H41.9535V31.16ZM45.3375 38.264C46.1535 38.264 46.7855 38.072 47.2335 37.688C47.6975 37.304 47.9295 36.76 47.9295 36.056C47.9295 35.336 47.6895 34.776 47.2095 34.376C46.7295 33.96 46.0815 33.752 45.2655 33.752H41.9535V38.264H45.3375Z" fill="#F6F6F6"/>
</svg>
